<?xml version="1.0" encoding="UTF-8"?>
<svg xmlns="http://www.w3.org/2000/svg" xmlns:xlink="http://www.w3.org/1999/xlink" width="2000pt" height="2000pt" viewBox="0 0 2000 2000" version="1.2">
<g id="surface1">
<rect x="0" y="0" width="2000" height="2000" style="fill:rgb(94.921875%,94.921875%,94.921875%);fill-opacity:1;stroke:none;"/>
<path style=" stroke:none;fill-rule:nonzero;fill:rgb(5.099487%,5.099487%,5.099487%);fill-opacity:1;" d="M 478.859375 1439.515625 C 480.054688 1455.1875 486.652344 1468.898438 505.042969 1468.898438 C 514.378906 1468.898438 523.714844 1463.84375 523.714844 1451.648438 C 523.714844 1441.160156 514.660156 1435.21875 501.324219 1428.015625 C 487.636719 1420.621094 475.703125 1413.605469 475.703125 1399.011719 C 475.703125 1383.71875 488.546875 1376.578125 502.726563 1376.578125 C 512.203125 1376.578125 516.414063 1379.042969 520.277344 1381.382813 C 522.59375 1382.707031 523.855469 1383.214844 525.191406 1383.214844 C 527.015625 1383.214844 527.789063 1381.253906 528.351563 1377.527344 L 531.648438 1377.527344 C 531.226563 1382.074219 530.945313 1387.636719 530.945313 1403.9375 L 527.648438 1403.9375 C 526.59375 1391.617188 519.996094 1379.042969 504.0625 1379.042969 C 493.8125 1379.042969 486.511719 1385.171875 486.511719 1394.082031 C 486.511719 1405.835938 497.742188 1410.511719 510.660156 1417.777344 C 525.613281 1426.183594 536.5625 1433.007813 536.5625 1446.910156 C 536.5625 1463.339844 522.734375 1471.488281 506.027344 1471.488281 C 495.847656 1471.488281 490.511719 1469.023438 486.371094 1466.6875 C 484.054688 1465.359375 482.652344 1464.855469 481.457031 1464.855469 C 479.632813 1464.855469 478.859375 1466.8125 478.300781 1470.539063 L 475 1470.539063 C 475.421875 1465.234375 475.5625 1457.777344 475.5625 1439.515625 L 478.859375 1439.515625 "/>
<path style=" stroke:none;fill-rule:nonzero;fill:rgb(5.099487%,5.099487%,5.099487%);fill-opacity:1;" d="M 622.203125 1380.621094 C 612.445313 1381.003906 610.550781 1382.328125 610.550781 1391.742188 L 610.550781 1455.945313 C 610.550781 1465.359375 612.445313 1466.6875 622.203125 1467.066406 L 622.203125 1469.65625 C 617.78125 1469.402344 610.550781 1469.277344 603.949219 1469.277344 C 596.511719 1469.277344 589.5625 1469.402344 585.558594 1469.65625 L 585.558594 1467.066406 C 595.316406 1466.6875 597.214844 1465.359375 597.214844 1455.945313 L 597.214844 1391.742188 C 597.214844 1382.328125 595.316406 1381.003906 585.558594 1380.621094 L 585.558594 1378.03125 C 589.5625 1378.285156 596.511719 1378.410156 603.949219 1378.410156 C 610.550781 1378.410156 617.78125 1378.285156 622.203125 1378.03125 L 622.203125 1380.621094 "/>
<path style=" stroke:none;fill-rule:nonzero;fill:rgb(5.099487%,5.099487%,5.099487%);fill-opacity:1;" d="M 749.046875 1469.65625 C 748.90625 1466.6875 747.574219 1462.261719 745.117188 1462.261719 C 743.992188 1462.261719 743.289063 1462.515625 740.414063 1464.476563 C 734.09375 1468.773438 727.285156 1471.488281 717.949219 1471.488281 C 688.1875 1471.488281 670.847656 1454.238281 670.847656 1425.425781 C 670.847656 1395.21875 690.363281 1376.199219 717.105469 1376.199219 C 729.601563 1376.199219 736.199219 1380.242188 743.011719 1384.605469 C 744.132813 1385.425781 744.976563 1385.929688 745.886719 1385.929688 C 747.714844 1385.929688 748.90625 1383.46875 749.46875 1378.03125 L 752.765625 1378.03125 C 752.347656 1384.351563 752.203125 1392.753906 752.203125 1407.796875 L 748.90625 1407.796875 C 747.574219 1400.527344 746.167969 1393.578125 741.675781 1388.648438 C 736.058594 1382.328125 726.441406 1378.535156 716.828125 1378.535156 C 697.734375 1378.535156 685.167969 1396.167969 685.167969 1423.972656 C 685.167969 1455.058594 695.976563 1468.898438 719.425781 1468.898438 C 726.304688 1468.898438 731.496094 1466.6875 734.375 1464.855469 C 737.953125 1462.644531 738.515625 1461 738.515625 1457.777344 L 738.515625 1445.328125 C 738.515625 1434.839844 736.058594 1433.324219 723.984375 1432.878906 L 723.984375 1430.289063 C 729.039063 1430.605469 737.816406 1430.730469 744.273438 1430.730469 C 750.589844 1430.730469 755.785156 1430.605469 759.226563 1430.289063 L 759.226563 1432.878906 C 752.90625 1433.324219 751.925781 1434.460938 751.925781 1444.003906 L 751.925781 1469.65625 L 749.046875 1469.65625 "/>
<path style=" stroke:none;fill-rule:nonzero;fill:rgb(5.099487%,5.099487%,5.099487%);fill-opacity:1;" d="M 896.390625 1380.621094 C 886.632813 1381.003906 884.738281 1383.59375 884.738281 1393.070313 L 884.738281 1470.289063 L 881.4375 1470.289063 L 821.066406 1386.308594 L 821.066406 1454.617188 C 821.066406 1464.09375 822.964844 1466.6875 834.125 1467.066406 L 834.125 1469.65625 C 830.6875 1469.402344 824.367188 1469.277344 819.453125 1469.277344 C 814.609375 1469.277344 809.273438 1469.402344 806.117188 1469.65625 L 806.117188 1467.066406 C 815.875 1466.6875 817.769531 1464.09375 817.769531 1454.617188 L 817.769531 1391.742188 C 817.769531 1382.328125 815.875 1381.003906 806.117188 1380.621094 L 806.117188 1378.03125 C 809.273438 1378.285156 814.609375 1378.410156 819.453125 1378.410156 C 823.664063 1378.410156 827.527344 1378.285156 830.6875 1378.03125 L 881.4375 1448.425781 L 881.4375 1393.070313 C 881.4375 1383.59375 879.613281 1381.003906 868.382813 1380.621094 L 868.382813 1378.03125 C 871.820313 1378.285156 878.136719 1378.410156 883.050781 1378.410156 C 887.894531 1378.410156 893.230469 1378.285156 896.390625 1378.03125 L 896.390625 1380.621094 "/>
<path style=" stroke:none;fill-rule:nonzero;fill:rgb(5.099487%,5.099487%,5.099487%);fill-opacity:1;" d="M 1018.179688 1458.785156 C 1021.058594 1465.359375 1025.128906 1466.9375 1028.148438 1467.066406 L 1028.148438 1469.65625 C 1024.21875 1469.402344 1018.179688 1469.277344 1012.710938 1469.277344 C 1005.261719 1469.277344 998.386719 1469.402344 994.3125 1469.65625 L 994.3125 1467.066406 C 1001.261719 1466.8125 1004.488281 1465.863281 1004.488281 1462.261719 C 1004.488281 1460.746094 1003.929688 1458.785156 1002.808594 1456.195313 L 993.964844 1434.964844 L 959.285156 1434.964844 L 953.390625 1448.675781 C 951.421875 1453.164063 950.511719 1456.640625 950.511719 1459.292969 C 950.511719 1464.917969 954.792969 1466.875 963.007813 1467.066406 L 963.007813 1469.65625 C 957.53125 1469.402344 951.492188 1469.277344 946.4375 1469.277344 C 941.597656 1469.277344 938.578125 1469.402344 935.699219 1469.65625 L 935.699219 1467.066406 C 939.421875 1466.308594 943.703125 1463.589844 947 1455.816406 L 980.835938 1377.398438 L 983.152344 1377.398438 Z M 976.835938 1393.765625 L 960.339844 1432.375 L 992.910156 1432.375 Z M 976.835938 1393.765625 "/>
<path style=" stroke:none;fill-rule:nonzero;fill:rgb(5.099487%,5.099487%,5.099487%);fill-opacity:1;" d="M 1060.789063 1405.203125 C 1061.070313 1402.484375 1061.210938 1398.757813 1061.210938 1394.589844 C 1061.210938 1391.363281 1060.929688 1384.605469 1060.160156 1378.03125 C 1072.089844 1378.410156 1088.941406 1378.410156 1100.730469 1378.410156 C 1112.519531 1378.410156 1129.160156 1378.410156 1141.089844 1378.03125 C 1140.390625 1384.605469 1140.109375 1391.363281 1140.109375 1394.589844 C 1140.109375 1398.757813 1140.25 1402.484375 1140.53125 1405.203125 L 1137.230469 1405.203125 C 1135.199219 1387.195313 1133.089844 1381.003906 1115.121094 1381.003906 L 1107.328125 1381.003906 L 1107.328125 1454.617188 C 1107.328125 1465.105469 1109.789063 1466.6875 1121.859375 1467.066406 L 1121.859375 1469.65625 C 1116.808594 1469.402344 1108.519531 1469.277344 1100.730469 1469.277344 C 1092.101563 1469.277344 1084.03125 1469.402344 1079.460938 1469.65625 L 1079.460938 1467.066406 C 1091.539063 1466.6875 1093.988281 1465.105469 1093.988281 1454.617188 L 1093.988281 1381.003906 L 1086.199219 1381.003906 C 1068.230469 1381.003906 1066.050781 1387.195313 1064.089844 1405.203125 L 1060.789063 1405.203125 "/>
<path style=" stroke:none;fill-rule:nonzero;fill:rgb(5.099487%,5.099487%,5.099487%);fill-opacity:1;" d="M 1275.378906 1380.621094 C 1265.621094 1381.003906 1263.800781 1383.59375 1263.800781 1393.070313 L 1263.800781 1431.996094 C 1263.800781 1444.003906 1262.179688 1452.847656 1257.898438 1459.417969 C 1253.128906 1466.6875 1243.371094 1471.488281 1231.578125 1471.488281 C 1222.378906 1471.488281 1213.75 1469.78125 1207.429688 1464.476563 C 1198.941406 1457.335938 1196.761719 1450.003906 1196.761719 1432.375 L 1196.761719 1391.742188 C 1196.761719 1382.328125 1194.941406 1381.003906 1185.109375 1380.621094 L 1185.109375 1378.03125 C 1189.179688 1378.285156 1196.058594 1378.410156 1203.5 1378.410156 C 1210.171875 1378.410156 1217.328125 1378.285156 1221.820313 1378.03125 L 1221.820313 1380.621094 C 1211.988281 1381.003906 1210.171875 1382.328125 1210.171875 1391.742188 L 1210.171875 1434.585938 C 1210.171875 1452.34375 1212.410156 1466.9375 1232.839844 1466.9375 C 1254.53125 1466.9375 1260.429688 1452.722656 1260.429688 1433.449219 L 1260.429688 1393.070313 C 1260.429688 1383.59375 1257.128906 1381.003906 1247.371094 1380.621094 L 1247.371094 1378.03125 C 1250.808594 1378.285156 1257.128906 1378.410156 1262.039063 1378.410156 C 1266.960938 1378.410156 1272.21875 1378.285156 1275.378906 1378.03125 L 1275.378906 1380.621094 "/>
<path style=" stroke:none;fill-rule:nonzero;fill:rgb(5.099487%,5.099487%,5.099487%);fill-opacity:1;" d="M 1410.160156 1463.210938 C 1406.089844 1468.519531 1402.511719 1471.488281 1394.789063 1471.488281 C 1387.558594 1471.488281 1382.078125 1468.519531 1379.339844 1457.460938 L 1376.179688 1444.570313 C 1373.449219 1433.574219 1371.339844 1426.183594 1359.96875 1426.183594 L 1346.28125 1426.183594 L 1346.28125 1455.945313 C 1346.28125 1465.359375 1348.171875 1466.6875 1357.929688 1467.066406 L 1357.929688 1469.65625 C 1353.511719 1469.402344 1346.28125 1469.277344 1339.679688 1469.277344 C 1332.238281 1469.277344 1325.289063 1469.402344 1321.289063 1469.65625 L 1321.289063 1467.066406 C 1331.050781 1466.6875 1332.941406 1465.359375 1332.941406 1455.945313 L 1332.941406 1391.742188 C 1332.941406 1382.328125 1331.050781 1381.003906 1321.289063 1380.621094 L 1321.289063 1378.03125 C 1325.289063 1378.285156 1332.519531 1378.410156 1338.839844 1378.410156 C 1347.890625 1378.410156 1357.089844 1378.160156 1360.53125 1378.160156 C 1383.691406 1378.160156 1395.210938 1388.015625 1395.210938 1400.652344 C 1395.210938 1409.628906 1388.960938 1422.519531 1367.269531 1425.550781 L 1369.019531 1425.804688 C 1381.800781 1427.699219 1386.429688 1432.121094 1389.171875 1442.863281 L 1392.75 1456.070313 C 1394.5 1463.589844 1396.121094 1466.6875 1400.121094 1466.6875 C 1403.628906 1466.6875 1405.308594 1464.789063 1407.980469 1461.757813 Z M 1355.96875 1423.59375 C 1376.320313 1423.59375 1380.820313 1413.984375 1380.820313 1402.105469 C 1380.820313 1388.523438 1374.359375 1380.621094 1356.949219 1380.621094 C 1348.171875 1380.621094 1346.28125 1382.835938 1346.28125 1391.742188 L 1346.28125 1423.59375 L 1355.96875 1423.59375 "/>
<path style=" stroke:none;fill-rule:nonzero;fill:rgb(5.099487%,5.099487%,5.099487%);fill-opacity:1;" d="M 1524.441406 1443.75 C 1524.160156 1446.085938 1524.019531 1449.5 1524.019531 1453.101563 C 1524.019531 1456.324219 1524.300781 1463.085938 1525 1469.65625 C 1515.238281 1469.277344 1501.691406 1469.277344 1492.078125 1469.277344 C 1483.441406 1469.277344 1464.488281 1469.277344 1450.378906 1469.65625 L 1450.378906 1467.066406 C 1460.140625 1466.6875 1462.03125 1465.359375 1462.03125 1455.945313 L 1462.03125 1391.742188 C 1462.03125 1382.328125 1460.140625 1381.003906 1450.378906 1380.621094 L 1450.378906 1378.03125 C 1464.488281 1378.410156 1483.441406 1378.410156 1492.078125 1378.410156 C 1500.851563 1378.410156 1513.210938 1378.410156 1522.121094 1378.03125 C 1521.421875 1384.097656 1521.140625 1390.355469 1521.140625 1393.324219 C 1521.140625 1396.421875 1521.28125 1399.390625 1521.558594 1401.347656 L 1518.261719 1401.347656 C 1516.371094 1386.058594 1514.191406 1381.003906 1498.960938 1381.003906 L 1487.019531 1381.003906 C 1477.269531 1381.003906 1475.371094 1382.328125 1475.371094 1391.742188 L 1475.371094 1422.265625 L 1484.921875 1422.265625 C 1497.410156 1422.265625 1497.128906 1411.394531 1498.261719 1405.203125 L 1501.550781 1405.203125 C 1501.128906 1410.699219 1501.058594 1414.429688 1501.058594 1417.398438 C 1501.058594 1419.800781 1501.128906 1421.695313 1501.128906 1423.59375 C 1501.128906 1427.824219 1501.269531 1432.121094 1501.980469 1441.980469 L 1498.679688 1441.980469 C 1497.550781 1433.703125 1497.410156 1424.855469 1484.921875 1424.855469 L 1475.371094 1424.855469 L 1475.371094 1455.945313 C 1475.371094 1465.359375 1477.269531 1466.6875 1487.019531 1466.6875 L 1497.550781 1466.6875 C 1515.519531 1466.6875 1519.101563 1460.871094 1521.140625 1443.75 L 1524.441406 1443.75 "/>
<path style=" stroke:none;fill-rule:nonzero;fill:rgb(5.099487%,5.099487%,5.099487%);fill-opacity:1;" d="M 680 1293.472656 C 864.222656 1286.84375 1134.808594 1286.773438 1320 1293.472656 C 1135.019531 1300.160156 864.441406 1300.105469 680 1293.472656 "/>
<path style=" stroke:none;fill-rule:nonzero;fill:rgb(5.099487%,5.099487%,5.099487%);fill-opacity:1;" d="M 1088.191406 1128.9375 C 1081.359375 1126.558594 1074.449219 1124.464844 1067.488281 1122.65625 C 1063.089844 1121.511719 1060 1117.535156 1060 1112.984375 L 1060 1110.921875 C 1060 1106.539063 1062.851563 1104.679688 1067.039063 1103.378906 C 1071.109375 1102.109375 1071.398438 1095.941406 1067.039063 1094.59375 C 1062.851563 1093.296875 1060 1091.425781 1060 1087.035156 L 1060 1059.46875 C 1060 1056.15625 1057.320313 1053.46875 1054 1053.46875 L 946.003906 1053.46875 C 942.691406 1053.46875 940.003906 1056.15625 940.003906 1059.46875 L 940.003906 1087.039063 C 940.003906 1091.421875 937.148438 1093.300781 932.964844 1094.597656 C 930.382813 1095.394531 925.175781 1100.734375 939.222656 1103.308594 C 950.183594 1105.320313 982.527344 1108.328125 993.722656 1108.914063 C 936.351563 1110.160156 940.003906 1106.058594 940.003906 1112.984375 C 940.003906 1117.539063 936.929688 1121.507813 932.515625 1122.65625 C 925.554688 1124.464844 918.648438 1126.558594 911.816406 1128.9375 C 881.746094 1139.398438 865.148438 1171.453125 873.894531 1202.066406 L 893.789063 1271.710938 C 897.46875 1284.589844 909.238281 1293.472656 922.632813 1293.472656 L 1077.371094 1293.472656 C 1090.769531 1293.472656 1102.539063 1284.589844 1106.21875 1271.710938 L 1126.109375 1202.066406 C 1134.851563 1171.492188 1118.21875 1139.386719 1088.191406 1128.9375 Z M 1092.761719 1267.859375 C 1090.800781 1274.699219 1084.480469 1279.480469 1077.359375 1279.480469 L 922.625 1279.480469 C 915.523438 1279.480469 909.203125 1274.699219 907.242188 1267.859375 L 890.242188 1208.28125 C 900.105469 1223 903.324219 1246.0625 911.882813 1261.359375 C 915.363281 1267.519531 921.824219 1270.761719 927.804688 1269.460938 C 971.425781 1259.921875 1028.578125 1259.921875 1072.199219 1269.460938 C 1078.179688 1270.761719 1084.640625 1267.519531 1088.121094 1261.359375 C 1096.679688 1246.0625 1099.898438 1223 1109.761719 1208.28125 L 1092.761719 1267.859375 "/>
<path style=" stroke:none;fill-rule:nonzero;fill:rgb(5.099487%,5.099487%,5.099487%);fill-opacity:1;" d="M 1256.148438 738.601563 C 1270.230469 726.910156 1288.261719 716.808594 1308.539063 710.339844 C 1314.199219 694.609375 1317.691406 677.949219 1318.46875 660.269531 C 1310.601563 659.210938 1296.851563 660.878906 1288.519531 662.78125 C 1296.488281 656.730469 1305.640625 650.589844 1318.511719 646.238281 C 1317.191406 611.058594 1305.230469 572.03125 1278.648438 528.511719 C 1244.191406 588.210938 1201.660156 633.148438 1159.671875 673.761719 C 1168.800781 686.019531 1175.859375 699.070313 1180.609375 711.910156 C 1171.769531 702.03125 1160.609375 692.640625 1148.039063 684.929688 C 1045.339844 782.921875 950.617188 860.640625 991.042969 1072.609375 C 991.042969 832.421875 1215.441406 804.171875 1267.808594 613.53125 C 1251.140625 778.460938 1108.488281 800.121094 1029.191406 959.679688 C 1059.910156 911.328125 1239.730469 849.230469 1299.398438 731.46875 C 1284.160156 731.710938 1269.230469 734.300781 1256.148438 738.601563 "/>
</g>
</svg>
