<svg width="78.867" height="6.934" viewBox="0 0 78.867 6.934" xmlns="http://www.w3.org/2000/svg"><g id="svgGroup" stroke-linecap="round" fill-rule="evenodd" font-size="9pt" stroke="#000" stroke-width="0.25mm" fill="#000" style="stroke:#000;stroke-width:0.25mm;fill:#000"><path d="M 3.774 0 L 3.955 0 L 3.955 2.295 L 3.774 2.295 Q 3.726 1.826 3.564 1.47 A 2.123 2.123 0 0 0 3.35 1.096 A 1.764 1.764 0 0 0 3.157 0.872 A 1.65 1.65 0 0 0 2.598 0.508 A 1.809 1.809 0 0 0 1.934 0.386 Q 1.694 0.386 1.482 0.469 A 1.259 1.259 0 0 0 1.211 0.613 A 1.121 1.121 0 0 0 1.113 0.691 Q 0.957 0.83 0.864 1.016 Q 0.772 1.201 0.772 1.406 A 0.908 0.908 0 0 0 0.805 1.654 A 0.81 0.81 0 0 0 0.845 1.765 A 0.795 0.795 0 0 0 0.923 1.9 Q 0.967 1.962 1.026 2.025 A 1.649 1.649 0 0 0 1.104 2.102 A 2.344 2.344 0 0 0 1.261 2.236 Q 1.344 2.3 1.443 2.368 A 5.138 5.138 0 0 0 1.606 2.476 Q 1.823 2.612 2.123 2.779 A 19.777 19.777 0 0 0 2.417 2.939 A 21.724 21.724 0 0 1 2.644 3.063 Q 2.968 3.242 3.201 3.386 Q 3.511 3.579 3.687 3.711 Q 4.023 3.96 4.211 4.316 A 1.629 1.629 0 0 1 4.399 5.088 Q 4.399 5.464 4.246 5.801 Q 4.092 6.138 3.813 6.389 A 2.03 2.03 0 0 1 3.292 6.728 A 2.387 2.387 0 0 1 3.152 6.787 A 2.236 2.236 0 0 1 2.548 6.923 A 2.7 2.7 0 0 1 2.31 6.934 A 3.374 3.374 0 0 1 1.968 6.917 A 2.614 2.614 0 0 1 1.694 6.875 A 5.293 5.293 0 0 1 1.431 6.813 A 3.89 3.89 0 0 1 1.196 6.743 A 29.542 29.542 0 0 1 1.014 6.682 Q 0.932 6.654 0.858 6.628 A 16.261 16.261 0 0 1 0.811 6.611 A 1.306 1.306 0 0 0 0.702 6.578 Q 0.649 6.564 0.601 6.558 A 0.566 0.566 0 0 0 0.527 6.553 A 0.277 0.277 0 0 0 0.435 6.568 A 0.237 0.237 0 0 0 0.337 6.633 Q 0.277 6.699 0.243 6.86 A 1.401 1.401 0 0 0 0.23 6.934 L 0.054 6.934 L 0.054 4.658 L 0.23 4.658 A 3.267 3.267 0 0 0 0.306 5.07 Q 0.372 5.325 0.476 5.53 A 2.094 2.094 0 0 0 0.694 5.874 A 1.69 1.69 0 0 0 0.925 6.116 A 1.677 1.677 0 0 0 1.521 6.445 A 2.28 2.28 0 0 0 2.202 6.548 A 1.8 1.8 0 0 0 2.507 6.523 A 1.425 1.425 0 0 0 2.749 6.46 A 1.435 1.435 0 0 0 3.008 6.338 A 1.189 1.189 0 0 0 3.167 6.223 A 1.047 1.047 0 0 0 3.411 5.921 A 1.004 1.004 0 0 0 3.433 5.879 Q 3.525 5.684 3.525 5.464 A 1.188 1.188 0 0 0 3.507 5.248 A 0.9 0.9 0 0 0 3.44 5.034 Q 3.358 4.857 3.181 4.691 A 1.632 1.632 0 0 0 3.164 4.675 A 2.486 2.486 0 0 0 2.99 4.532 Q 2.902 4.466 2.799 4.397 A 4.874 4.874 0 0 0 2.668 4.314 A 15.814 15.814 0 0 0 2.421 4.165 Q 2.2 4.034 1.929 3.882 Q 1.5 3.643 1.186 3.441 A 7.311 7.311 0 0 1 0.959 3.289 Q 0.674 3.089 0.481 2.9 A 2.254 2.254 0 0 1 0.371 2.786 A 1.669 1.669 0 0 1 0.209 2.573 Q 0.128 2.445 0.084 2.316 A 1.023 1.023 0 0 1 0.078 2.297 A 1.641 1.641 0 0 1 0.014 1.992 A 2.142 2.142 0 0 1 0 1.743 A 1.682 1.682 0 0 1 0.134 1.077 A 1.653 1.653 0 0 1 0.52 0.522 A 1.811 1.811 0 0 1 0.977 0.208 A 2.159 2.159 0 0 1 1.128 0.142 A 1.993 1.993 0 0 1 1.63 0.017 A 2.525 2.525 0 0 1 1.929 0 A 2.523 2.523 0 0 1 2.207 0.015 A 1.885 1.885 0 0 1 2.456 0.059 A 4.748 4.748 0 0 1 2.678 0.12 A 3.516 3.516 0 0 1 2.876 0.186 A 12.915 12.915 0 0 1 3.041 0.247 Q 3.118 0.277 3.186 0.305 A 7.494 7.494 0 0 1 3.206 0.313 A 0.989 0.989 0 0 0 3.3 0.346 Q 3.349 0.36 3.392 0.366 A 0.459 0.459 0 0 0 3.457 0.371 A 0.256 0.256 0 0 0 3.569 0.347 A 0.255 0.255 0 0 0 3.645 0.291 A 0.327 0.327 0 0 0 3.689 0.229 Q 3.726 0.165 3.757 0.062 A 1.544 1.544 0 0 0 3.774 0 Z" id="0"/><path d="M 10.898 6.777 L 8.062 6.777 L 8.062 6.592 L 8.301 6.592 Q 8.467 6.592 8.591 6.555 A 0.661 0.661 0 0 0 8.647 6.536 A 0.558 0.558 0 0 0 8.887 6.353 Q 9.004 6.216 9.004 5.601 L 9.004 1.323 A 20.101 20.101 0 0 0 9.004 1.202 Q 9.003 1.155 9.003 1.112 A 9.963 9.963 0 0 0 9.001 1.033 Q 9 0.941 8.993 0.87 A 1.513 1.513 0 0 0 8.989 0.828 Q 8.98 0.742 8.958 0.684 A 0.328 0.328 0 0 0 8.908 0.595 A 0.307 0.307 0 0 0 8.897 0.581 A 0.626 0.626 0 0 0 8.751 0.459 A 0.832 0.832 0 0 0 8.635 0.4 A 0.86 0.86 0 0 0 8.301 0.332 L 8.062 0.332 L 8.062 0.156 L 10.898 0.156 L 10.898 0.332 L 10.659 0.332 A 1.154 1.154 0 0 0 10.486 0.344 A 0.843 0.843 0 0 0 10.315 0.388 A 0.52 0.52 0 0 0 10.073 0.571 Q 9.951 0.737 9.951 1.323 L 9.951 5.601 A 5.946 5.946 0 0 0 9.953 5.753 Q 9.957 5.917 9.971 6.032 A 1.464 1.464 0 0 0 9.98 6.099 Q 10.008 6.261 10.056 6.349 A 0.34 0.34 0 0 0 10.063 6.362 A 0.173 0.173 0 0 0 10.085 6.389 Q 10.108 6.414 10.146 6.439 A 0.577 0.577 0 0 0 10.151 6.443 A 0.698 0.698 0 0 0 10.234 6.489 A 0.887 0.887 0 0 0 10.298 6.516 A 1.299 1.299 0 0 0 10.429 6.558 A 1.501 1.501 0 0 0 10.476 6.57 A 0.857 0.857 0 0 0 10.602 6.59 A 0.734 0.734 0 0 0 10.659 6.592 L 10.898 6.592 L 10.898 6.777 Z" id="2"/><path d="M 21.108 3.34 L 20.996 3.34 A 1.038 1.038 0 0 0 20.868 3.347 Q 20.803 3.355 20.75 3.372 A 0.459 0.459 0 0 0 20.669 3.406 A 0.492 0.492 0 0 0 20.478 3.591 A 0.586 0.586 0 0 0 20.474 3.599 Q 20.379 3.762 20.372 4.24 A 5.318 5.318 0 0 0 20.371 4.316 L 20.371 6.338 A 4.368 4.368 0 0 1 19.568 6.704 A 3.846 3.846 0 0 1 19.243 6.797 A 5.076 5.076 0 0 1 18.199 6.931 A 5.705 5.705 0 0 1 18.042 6.934 A 4.898 4.898 0 0 1 17.224 6.868 A 3.762 3.762 0 0 1 16.499 6.672 Q 15.82 6.411 15.347 5.957 A 3.049 3.049 0 0 1 14.624 4.888 A 3.466 3.466 0 0 1 14.376 3.664 A 3.971 3.971 0 0 1 14.375 3.564 A 3.534 3.534 0 0 1 14.452 2.842 A 3.964 3.964 0 0 1 14.475 2.737 A 3.69 3.69 0 0 1 14.775 1.919 A 3.824 3.824 0 0 1 15.271 1.174 A 3.285 3.285 0 0 1 15.957 0.564 A 3.325 3.325 0 0 1 16.704 0.194 A 3.789 3.789 0 0 1 16.831 0.151 A 3.32 3.32 0 0 1 17.537 0.015 A 4.021 4.021 0 0 1 17.886 0 A 4.416 4.416 0 0 1 18.227 0.013 Q 18.436 0.029 18.611 0.066 A 5.409 5.409 0 0 1 18.831 0.117 Q 18.951 0.148 19.055 0.181 A 2.927 2.927 0 0 1 19.146 0.212 A 7.973 7.973 0 0 1 19.253 0.252 Q 19.402 0.308 19.509 0.356 A 2.775 2.775 0 0 1 19.517 0.359 A 1.091 1.091 0 0 0 19.599 0.392 Q 19.681 0.421 19.742 0.424 A 0.279 0.279 0 0 0 19.756 0.425 A 0.117 0.117 0 0 0 19.806 0.412 Q 19.843 0.395 19.883 0.352 A 0.484 0.484 0 0 0 19.893 0.342 A 0.245 0.245 0 0 0 19.929 0.283 Q 19.974 0.188 19.995 0 L 20.181 0 L 20.342 2.09 L 20.181 2.09 Q 20.02 1.616 19.8 1.287 A 2.371 2.371 0 0 0 19.52 0.939 A 1.962 1.962 0 0 0 19.302 0.747 Q 19.023 0.532 18.691 0.437 Q 18.359 0.342 17.983 0.342 A 2.714 2.714 0 0 0 17.414 0.399 A 2.128 2.128 0 0 0 16.914 0.571 Q 16.45 0.801 16.135 1.206 Q 15.82 1.611 15.659 2.161 A 4.013 4.013 0 0 0 15.511 2.997 A 4.792 4.792 0 0 0 15.498 3.35 A 4.528 4.528 0 0 0 15.565 4.144 A 3.719 3.719 0 0 0 15.693 4.656 Q 15.889 5.249 16.23 5.681 A 2.45 2.45 0 0 0 17.039 6.353 Q 17.505 6.592 18.052 6.592 Q 18.403 6.592 18.748 6.511 Q 19.092 6.431 19.419 6.226 L 19.419 4.316 A 4.71 4.71 0 0 0 19.416 4.133 Q 19.409 3.958 19.388 3.833 A 1.362 1.362 0 0 0 19.385 3.816 A 0.797 0.797 0 0 0 19.354 3.697 Q 19.331 3.632 19.299 3.581 A 0.408 0.408 0 0 0 19.255 3.525 A 0.433 0.433 0 0 0 19.113 3.425 A 0.616 0.616 0 0 0 18.992 3.386 Q 18.879 3.362 18.72 3.349 A 3.929 3.929 0 0 0 18.555 3.34 L 18.555 3.169 L 21.108 3.169 L 21.108 3.34 Z" id="4"/><path d="M 31.221 0.332 L 30.991 0.332 A 1.162 1.162 0 0 0 30.782 0.35 Q 30.517 0.398 30.396 0.581 A 0.465 0.465 0 0 0 30.351 0.69 Q 30.299 0.871 30.294 1.226 A 5.502 5.502 0 0 0 30.293 1.304 L 30.293 6.885 L 30.117 6.885 L 25.737 1.553 L 25.737 5.62 A 4.307 4.307 0 0 0 25.744 5.863 Q 25.764 6.213 25.846 6.352 A 0.262 0.262 0 0 0 25.874 6.392 A 0.568 0.568 0 0 0 26.103 6.539 Q 26.196 6.572 26.31 6.584 A 1.34 1.34 0 0 0 26.455 6.592 L 26.685 6.592 L 26.685 6.777 L 24.37 6.777 L 24.37 6.592 L 24.6 6.592 A 1.306 1.306 0 0 0 24.751 6.584 Q 24.872 6.569 24.963 6.531 A 0.545 0.545 0 0 0 25.2 6.338 Q 25.254 6.255 25.286 6.084 A 1.516 1.516 0 0 0 25.302 5.965 Q 25.316 5.831 25.317 5.647 A 5.268 5.268 0 0 0 25.317 5.62 L 25.317 1.021 A 1.259 1.259 0 0 0 25.304 0.999 Q 25.288 0.976 25.267 0.945 A 4.418 4.418 0 0 0 25.247 0.916 Q 25.2 0.85 25.142 0.779 Q 25.083 0.708 25.017 0.64 A 0.862 0.862 0 0 0 24.905 0.542 A 0.775 0.775 0 0 0 24.878 0.522 A 1.037 1.037 0 0 0 24.714 0.432 A 1.314 1.314 0 0 0 24.592 0.386 A 0.993 0.993 0 0 0 24.437 0.349 Q 24.356 0.336 24.264 0.333 A 1.842 1.842 0 0 0 24.199 0.332 L 24.199 0.156 L 25.815 0.156 L 29.858 5.122 L 29.858 1.304 A 4.835 4.835 0 0 0 29.855 1.118 Q 29.848 0.94 29.827 0.816 A 1.343 1.343 0 0 0 29.824 0.798 A 1.058 1.058 0 0 0 29.805 0.712 Q 29.773 0.593 29.722 0.542 Q 29.624 0.439 29.485 0.386 A 0.742 0.742 0 0 0 29.346 0.348 Q 29.278 0.336 29.2 0.333 A 1.4 1.4 0 0 0 29.146 0.332 L 28.926 0.332 L 28.926 0.156 L 31.221 0.156 L 31.221 0.332 Z" id="6"/><path d="M 41.362 6.777 L 38.755 6.777 L 38.755 6.592 A 2.127 2.127 0 0 0 38.889 6.584 Q 38.954 6.579 39.009 6.569 A 1.006 1.006 0 0 0 39.075 6.555 A 0.874 0.874 0 0 0 39.165 6.528 Q 39.208 6.513 39.243 6.494 A 0.427 0.427 0 0 0 39.282 6.47 A 0.34 0.34 0 0 0 39.345 6.415 A 0.269 0.269 0 0 0 39.392 6.34 Q 39.424 6.265 39.424 6.172 A 0.778 0.778 0 0 0 39.41 6.032 Q 39.398 5.965 39.374 5.891 A 1.379 1.379 0 0 0 39.363 5.857 A 6.653 6.653 0 0 0 39.229 5.508 L 38.833 4.556 L 36.265 4.556 L 35.815 5.61 A 5.292 5.292 0 0 0 35.757 5.753 Q 35.731 5.819 35.709 5.879 A 3.064 3.064 0 0 0 35.696 5.918 Q 35.649 6.055 35.649 6.167 Q 35.649 6.26 35.688 6.331 A 0.273 0.273 0 0 0 35.744 6.4 Q 35.771 6.424 35.805 6.445 A 0.491 0.491 0 0 0 35.818 6.453 Q 35.887 6.492 35.988 6.521 A 1.362 1.362 0 0 0 36.055 6.538 A 1.87 1.87 0 0 0 36.175 6.562 Q 36.284 6.58 36.421 6.592 L 36.421 6.777 L 34.326 6.777 L 34.326 6.592 A 1.015 1.015 0 0 0 34.607 6.533 Q 34.732 6.488 34.857 6.377 A 1.174 1.174 0 0 0 34.876 6.36 Q 35.01 6.235 35.147 6.021 A 2.658 2.658 0 0 0 35.25 5.841 Q 35.3 5.748 35.35 5.639 A 5.821 5.821 0 0 0 35.43 5.459 L 37.754 0 L 37.93 0 L 40.23 5.508 Q 40.376 5.855 40.493 6.062 A 1.766 1.766 0 0 0 40.582 6.204 Q 40.629 6.271 40.677 6.324 A 0.842 0.842 0 0 0 40.735 6.382 A 0.708 0.708 0 0 0 40.909 6.499 A 0.638 0.638 0 0 0 41.008 6.536 A 1.421 1.421 0 0 0 41.149 6.567 Q 41.247 6.584 41.362 6.592 L 41.362 6.777 Z M 38.696 4.199 L 37.573 1.514 L 36.421 4.199 L 38.696 4.199 Z" id="8"/><path d="M 50.186 1.709 L 49.976 1.709 A 3.702 3.702 0 0 0 49.96 1.581 Q 49.951 1.518 49.94 1.462 A 1.912 1.912 0 0 0 49.927 1.399 A 1.762 1.762 0 0 0 49.899 1.292 Q 49.884 1.24 49.867 1.195 A 1.004 1.004 0 0 0 49.858 1.174 Q 49.819 1.079 49.773 1.013 A 0.945 0.945 0 0 0 49.668 0.889 A 0.983 0.983 0 0 0 49.304 0.642 Q 49.097 0.562 48.765 0.562 L 47.827 0.562 L 47.827 5.62 Q 47.827 5.926 47.862 6.115 A 1.298 1.298 0 0 0 47.864 6.123 Q 47.894 6.281 47.943 6.361 A 0.266 0.266 0 0 0 47.964 6.392 A 0.511 0.511 0 0 0 48.173 6.535 Q 48.258 6.568 48.364 6.582 A 1.29 1.29 0 0 0 48.53 6.592 L 48.765 6.592 L 48.765 6.777 L 45.952 6.777 L 45.952 6.592 L 46.191 6.592 Q 46.348 6.592 46.464 6.563 A 0.642 0.642 0 0 0 46.55 6.536 A 0.497 0.497 0 0 0 46.732 6.407 A 0.646 0.646 0 0 0 46.787 6.338 Q 46.841 6.265 46.865 6.089 A 2.075 2.075 0 0 0 46.878 5.968 Q 46.889 5.831 46.89 5.647 A 6.852 6.852 0 0 0 46.89 5.62 L 46.89 0.562 L 46.099 0.562 A 6.824 6.824 0 0 0 45.957 0.563 Q 45.902 0.564 45.853 0.566 A 3.238 3.238 0 0 0 45.762 0.571 Q 45.639 0.58 45.544 0.602 A 0.931 0.931 0 0 0 45.522 0.608 A 0.998 0.998 0 0 0 45.438 0.634 Q 45.396 0.649 45.36 0.667 A 0.58 0.58 0 0 0 45.347 0.674 A 0.899 0.899 0 0 0 45.248 0.735 A 1.083 1.083 0 0 0 45.2 0.771 A 0.989 0.989 0 0 0 44.991 1.014 A 1.24 1.24 0 0 0 44.922 1.143 A 1.326 1.326 0 0 0 44.841 1.373 Q 44.801 1.525 44.785 1.709 L 44.565 1.709 L 44.639 0.156 L 50.132 0.156 L 50.186 1.709 Z" id="10"/><path d="M 60.425 0.332 L 60.171 0.332 A 0.809 0.809 0 0 0 60.027 0.344 Q 59.945 0.359 59.878 0.392 A 0.455 0.455 0 0 0 59.834 0.417 A 0.843 0.843 0 0 0 59.716 0.511 Q 59.662 0.561 59.61 0.625 A 1.557 1.557 0 0 0 59.575 0.669 Q 59.473 0.806 59.473 1.357 L 59.473 4.053 A 8.616 8.616 0 0 1 59.459 4.546 A 7.475 7.475 0 0 1 59.448 4.705 A 3.876 3.876 0 0 1 59.395 5.111 A 3.295 3.295 0 0 1 59.358 5.286 A 2.537 2.537 0 0 1 59.233 5.669 A 2.237 2.237 0 0 1 59.18 5.786 Q 59.067 6.016 58.892 6.201 A 2.585 2.585 0 0 1 58.624 6.447 A 2.246 2.246 0 0 1 58.516 6.528 A 2 2 0 0 1 58.086 6.755 A 2.291 2.291 0 0 1 57.78 6.848 A 2.871 2.871 0 0 1 57.563 6.89 Q 57.275 6.934 56.909 6.934 Q 56.496 6.934 56.168 6.875 A 2.996 2.996 0 0 1 56.157 6.873 Q 55.825 6.812 55.569 6.702 A 2.33 2.33 0 0 1 55.301 6.566 A 1.885 1.885 0 0 1 55.12 6.445 A 2.078 2.078 0 0 1 54.859 6.212 A 1.835 1.835 0 0 1 54.785 6.128 Q 54.639 5.957 54.548 5.737 A 2.408 2.408 0 0 1 54.454 5.458 A 3.025 3.025 0 0 1 54.404 5.247 A 3.897 3.897 0 0 1 54.359 4.961 A 5.093 5.093 0 0 1 54.331 4.646 A 10.754 10.754 0 0 1 54.316 4.3 A 14.096 14.096 0 0 1 54.312 3.921 L 54.312 1.323 Q 54.312 1.016 54.27 0.82 A 1.084 1.084 0 0 0 54.238 0.702 Q 54.219 0.644 54.194 0.598 A 0.46 0.46 0 0 0 54.146 0.522 A 0.454 0.454 0 0 0 53.964 0.392 Q 53.818 0.332 53.599 0.332 L 53.447 0.332 L 53.447 0.156 L 56.118 0.156 L 56.118 0.332 L 55.869 0.332 A 1.057 1.057 0 0 0 55.759 0.337 Q 55.638 0.35 55.564 0.393 Q 55.459 0.454 55.376 0.591 A 0.518 0.518 0 0 0 55.339 0.667 Q 55.307 0.749 55.286 0.866 A 1.734 1.734 0 0 0 55.268 1.001 Q 55.261 1.071 55.257 1.151 A 4.066 4.066 0 0 0 55.254 1.323 L 55.254 4.214 A 9.385 9.385 0 0 0 55.256 4.423 A 12.086 12.086 0 0 0 55.264 4.651 A 3.893 3.893 0 0 0 55.313 5.125 A 2.5 2.5 0 0 0 55.437 5.591 Q 55.522 5.82 55.679 6.006 A 1.261 1.261 0 0 0 56.016 6.294 A 1.573 1.573 0 0 0 56.182 6.379 A 1.453 1.453 0 0 0 56.476 6.472 Q 56.698 6.519 56.978 6.519 A 2.557 2.557 0 0 0 57.298 6.499 A 2.07 2.07 0 0 0 57.527 6.458 A 2.718 2.718 0 0 0 57.794 6.379 A 2.139 2.139 0 0 0 57.979 6.304 A 2.766 2.766 0 0 0 58.166 6.209 A 2.051 2.051 0 0 0 58.328 6.108 A 2.921 2.921 0 0 0 58.427 6.037 Q 58.473 6.003 58.51 5.971 A 1.282 1.282 0 0 0 58.564 5.923 Q 58.721 5.776 58.813 5.562 Q 58.906 5.347 58.953 5.11 A 3.627 3.627 0 0 0 59.014 4.644 Q 59.025 4.468 59.028 4.327 A 4.488 4.488 0 0 0 59.028 4.243 L 59.028 1.323 A 4.907 4.907 0 0 0 59.025 1.125 Q 59.021 1.037 59.014 0.961 A 2.044 2.044 0 0 0 58.997 0.82 Q 58.968 0.646 58.907 0.561 A 0.253 0.253 0 0 0 58.892 0.542 Q 58.708 0.345 58.37 0.333 A 1.256 1.256 0 0 0 58.325 0.332 L 58.076 0.332 L 58.076 0.156 L 60.425 0.156 L 60.425 0.332 Z" id="12"/><path d="M 70.181 6.777 L 68.408 6.777 L 66.167 3.682 Q 66.035 3.687 65.938 3.694 A 2.818 2.818 0 0 1 65.847 3.699 Q 65.805 3.701 65.767 3.701 A 1.689 1.689 0 0 1 65.762 3.701 Q 65.688 3.701 65.618 3.699 A 0.973 0.973 0 0 1 65.544 3.693 A 1.264 1.264 0 0 1 65.464 3.682 L 65.464 5.601 Q 65.464 5.908 65.497 6.093 A 1.244 1.244 0 0 0 65.501 6.111 Q 65.531 6.268 65.584 6.345 A 0.232 0.232 0 0 0 65.605 6.372 A 0.632 0.632 0 0 0 65.94 6.567 A 0.975 0.975 0 0 0 66.167 6.592 L 66.426 6.592 L 66.426 6.777 L 63.589 6.777 L 63.589 6.592 L 63.838 6.592 A 1.067 1.067 0 0 0 64.057 6.571 Q 64.311 6.518 64.434 6.328 A 0.392 0.392 0 0 0 64.474 6.232 Q 64.522 6.071 64.53 5.741 A 5.786 5.786 0 0 0 64.531 5.601 L 64.531 1.323 Q 64.531 1.016 64.502 0.82 Q 64.476 0.65 64.421 0.565 A 0.255 0.255 0 0 0 64.404 0.542 Q 64.307 0.43 64.165 0.381 Q 64.023 0.332 63.838 0.332 L 63.589 0.332 L 63.589 0.156 L 65.991 0.156 A 13.3 13.3 0 0 1 66.371 0.161 Q 66.558 0.167 66.725 0.178 A 7.104 7.104 0 0 1 66.917 0.193 A 4.367 4.367 0 0 1 67.181 0.225 Q 67.305 0.244 67.41 0.27 A 1.961 1.961 0 0 1 67.563 0.313 A 1.939 1.939 0 0 1 68.035 0.54 A 1.717 1.717 0 0 1 68.413 0.879 Q 68.574 1.074 68.665 1.318 Q 68.755 1.563 68.755 1.846 A 1.722 1.722 0 0 1 68.688 2.33 A 1.596 1.596 0 0 1 68.657 2.424 A 1.437 1.437 0 0 1 68.357 2.915 A 1.763 1.763 0 0 1 68.055 3.174 A 2.223 2.223 0 0 1 67.849 3.298 Q 67.549 3.459 67.142 3.552 A 3.882 3.882 0 0 1 67.129 3.555 L 68.481 5.459 A 6.928 6.928 0 0 0 68.645 5.681 Q 68.728 5.789 68.805 5.879 A 3.473 3.473 0 0 0 68.897 5.981 A 2.391 2.391 0 0 0 69.088 6.167 A 1.812 1.812 0 0 0 69.282 6.313 A 1.504 1.504 0 0 0 69.692 6.501 Q 69.906 6.562 70.179 6.592 A 4.773 4.773 0 0 0 70.181 6.592 L 70.181 6.777 Z M 65.464 0.605 L 65.464 3.369 L 65.742 3.369 A 3.748 3.748 0 0 0 66.131 3.35 Q 66.382 3.324 66.589 3.262 A 2.034 2.034 0 0 0 66.894 3.145 A 1.483 1.483 0 0 0 67.185 2.961 Q 67.422 2.769 67.539 2.505 A 1.378 1.378 0 0 0 67.654 2.011 A 1.617 1.617 0 0 0 67.656 1.929 A 1.69 1.69 0 0 0 67.623 1.586 A 1.4 1.4 0 0 0 67.556 1.36 A 1.253 1.253 0 0 0 67.305 0.955 A 1.207 1.207 0 0 0 67.271 0.92 A 1.303 1.303 0 0 0 66.902 0.667 A 1.533 1.533 0 0 0 66.821 0.632 Q 66.558 0.527 66.23 0.522 A 1.895 1.895 0 0 0 66.135 0.525 Q 66.086 0.528 66.03 0.532 A 4.388 4.388 0 0 0 65.911 0.544 Q 65.745 0.563 65.534 0.595 A 16.454 16.454 0 0 0 65.464 0.605 Z" id="14"/><path d="M 78.867 5.112 L 78.291 6.777 L 73.188 6.777 L 73.188 6.592 L 73.418 6.592 Q 73.448 6.592 73.495 6.588 A 1.94 1.94 0 0 0 73.525 6.584 A 1.186 1.186 0 0 0 73.614 6.572 A 1.422 1.422 0 0 0 73.669 6.56 A 0.984 0.984 0 0 0 73.818 6.514 A 0.469 0.469 0 0 0 73.885 6.481 A 0.355 0.355 0 0 0 73.94 6.44 A 0.541 0.541 0 0 0 74.026 6.343 A 0.329 0.329 0 0 0 74.052 6.297 Q 74.063 6.273 74.073 6.244 A 0.728 0.728 0 0 0 74.087 6.196 A 0.975 0.975 0 0 0 74.104 6.12 Q 74.11 6.081 74.116 6.036 A 2.146 2.146 0 0 0 74.124 5.962 A 2.791 2.791 0 0 0 74.131 5.855 Q 74.133 5.8 74.134 5.736 A 6.599 6.599 0 0 0 74.136 5.601 L 74.136 1.304 A 5.001 5.001 0 0 0 74.132 1.115 Q 74.125 0.921 74.102 0.789 A 1.298 1.298 0 0 0 74.084 0.703 Q 74.053 0.58 74.009 0.532 Q 73.833 0.332 73.418 0.332 L 73.188 0.332 L 73.188 0.156 L 78.291 0.156 L 78.369 1.597 L 78.174 1.597 A 3.232 3.232 0 0 0 78.132 1.377 Q 78.108 1.27 78.078 1.178 A 1.605 1.605 0 0 0 78.04 1.074 A 0.984 0.984 0 0 0 77.946 0.896 A 0.759 0.759 0 0 0 77.808 0.74 A 0.785 0.785 0 0 0 77.587 0.609 A 1.025 1.025 0 0 0 77.441 0.564 Q 77.275 0.525 77.051 0.516 A 3.598 3.598 0 0 0 76.899 0.513 L 75.063 0.513 L 75.063 3.13 L 76.523 3.13 A 3.435 3.435 0 0 0 76.72 3.125 Q 76.921 3.113 77.053 3.076 Q 77.246 3.022 77.349 2.905 A 0.609 0.609 0 0 0 77.453 2.734 A 0.811 0.811 0 0 0 77.493 2.607 A 3.706 3.706 0 0 0 77.523 2.462 Q 77.547 2.333 77.568 2.178 L 77.754 2.178 L 77.754 4.478 L 77.568 4.478 A 6.037 6.037 0 0 0 77.541 4.294 Q 77.527 4.203 77.51 4.124 A 3.122 3.122 0 0 0 77.49 4.033 A 0.848 0.848 0 0 0 77.438 3.879 A 0.627 0.627 0 0 0 77.344 3.728 A 0.506 0.506 0 0 0 77.205 3.616 Q 77.144 3.583 77.07 3.559 A 0.91 0.91 0 0 0 77.048 3.552 A 1.16 1.16 0 0 0 76.903 3.521 Q 76.754 3.498 76.552 3.496 A 3.824 3.824 0 0 0 76.523 3.496 L 75.063 3.496 L 75.063 5.977 A 0.761 0.761 0 0 0 75.072 6.09 A 0.628 0.628 0 0 0 75.085 6.157 A 0.29 0.29 0 0 0 75.171 6.299 A 0.341 0.341 0 0 0 75.241 6.348 Q 75.286 6.372 75.344 6.389 Q 75.454 6.421 75.625 6.421 L 76.743 6.421 A 5.598 5.598 0 0 0 76.966 6.417 Q 77.068 6.413 77.158 6.405 A 3.163 3.163 0 0 0 77.217 6.399 Q 77.422 6.377 77.585 6.323 A 1.055 1.055 0 0 0 77.829 6.209 A 0.968 0.968 0 0 0 77.878 6.174 A 1.402 1.402 0 0 0 78.022 6.052 A 1.813 1.813 0 0 0 78.132 5.935 A 2.363 2.363 0 0 0 78.254 5.782 Q 78.318 5.693 78.384 5.588 A 10.94 10.94 0 0 0 78.5 5.398 Q 78.579 5.266 78.667 5.112 L 78.867 5.112 Z" id="16"/></g></svg>