<svg width="557.813" height="69.336" viewBox="0 0 557.813 69.336" xmlns="http://www.w3.org/2000/svg"><g id="svgGroup" stroke-linecap="round" fill-rule="evenodd" font-size="9pt" stroke="#000" stroke-width="0.25mm" fill="#000" style="stroke:#000;stroke-width:0.25mm;fill:#000"><path d="M 37.744 0 L 39.551 0 L 39.551 22.949 L 37.744 22.949 A 30.825 30.825 0 0 0 36.976 18.547 A 23.216 23.216 0 0 0 35.645 14.697 Q 34.033 11.133 31.568 8.716 A 16.499 16.499 0 0 0 25.977 5.078 A 18.087 18.087 0 0 0 19.336 3.858 A 12.297 12.297 0 0 0 14.82 4.688 Q 12.696 5.518 11.133 6.909 Q 9.571 8.301 8.643 10.156 A 8.622 8.622 0 0 0 7.715 14.063 A 9.078 9.078 0 0 0 8.046 16.544 A 8.102 8.102 0 0 0 8.447 17.651 A 7.953 7.953 0 0 0 9.228 18.997 Q 9.669 19.618 10.265 20.254 A 16.487 16.487 0 0 0 11.035 21.021 A 23.437 23.437 0 0 0 12.612 22.358 Q 14.081 23.505 16.065 24.756 Q 19.238 26.758 24.17 29.395 A 217.284 217.284 0 0 1 26.436 30.626 Q 29.656 32.402 31.97 33.84 A 76.467 76.467 0 0 1 32.007 33.862 A 119.618 119.618 0 0 1 33.473 34.789 Q 35.142 35.861 36.322 36.71 A 35.008 35.008 0 0 1 36.865 37.109 A 17.781 17.781 0 0 1 42.114 43.164 A 16.287 16.287 0 0 1 43.994 50.879 A 16.967 16.967 0 0 1 42.456 58.008 Q 40.918 61.377 38.135 63.892 A 20.304 20.304 0 0 1 32.919 67.285 A 23.868 23.868 0 0 1 31.519 67.871 A 22.362 22.362 0 0 1 25.481 69.233 A 27.001 27.001 0 0 1 23.096 69.336 A 33.742 33.742 0 0 1 19.682 69.171 A 26.144 26.144 0 0 1 16.944 68.75 Q 14.16 68.164 11.963 67.432 A 295.301 295.301 0 0 1 10.143 66.819 Q 9.039 66.443 8.106 66.113 A 13.058 13.058 0 0 0 7.022 65.78 Q 6.486 65.642 6.014 65.579 A 5.656 5.656 0 0 0 5.274 65.527 A 2.77 2.77 0 0 0 4.348 65.676 A 2.373 2.373 0 0 0 3.369 66.333 Q 2.637 67.139 2.295 69.336 L 0.537 69.336 L 0.537 46.582 L 2.295 46.582 Q 2.93 51.709 4.761 55.298 A 20.935 20.935 0 0 0 6.941 58.739 A 16.898 16.898 0 0 0 9.253 61.157 A 16.766 16.766 0 0 0 15.21 64.453 Q 18.506 65.479 22.022 65.479 A 18 18 0 0 0 25.073 65.231 A 14.253 14.253 0 0 0 27.49 64.6 A 14.352 14.352 0 0 0 30.077 63.379 A 11.886 11.886 0 0 0 31.665 62.232 A 10.471 10.471 0 0 0 34.114 59.211 A 10.043 10.043 0 0 0 34.326 58.789 Q 35.254 56.836 35.254 54.639 A 11.877 11.877 0 0 0 35.066 52.479 A 8.996 8.996 0 0 0 34.4 50.342 A 9.618 9.618 0 0 0 33.239 48.461 Q 32.563 47.593 31.641 46.753 A 24.859 24.859 0 0 0 29.904 45.32 Q 28.497 44.256 26.685 43.14 Q 23.633 41.26 19.287 38.818 A 166.564 166.564 0 0 1 15.293 36.523 Q 11.988 34.559 9.595 32.886 Q 6.735 30.886 4.805 29 A 22.54 22.54 0 0 1 3.711 27.857 Q 1.643 25.53 0.842 23.158 A 10.235 10.235 0 0 1 0.781 22.974 A 16.408 16.408 0 0 1 0.139 19.919 A 21.418 21.418 0 0 1 0 17.432 A 16.817 16.817 0 0 1 1.343 10.767 Q 2.686 7.617 5.2 5.225 A 18.106 18.106 0 0 1 9.77 2.082 A 21.594 21.594 0 0 1 11.279 1.416 A 19.928 19.928 0 0 1 16.304 0.171 A 25.247 25.247 0 0 1 19.287 0 A 25.227 25.227 0 0 1 22.071 0.147 A 18.85 18.85 0 0 1 24.561 0.586 A 47.478 47.478 0 0 1 26.782 1.196 A 35.16 35.16 0 0 1 28.76 1.856 A 129.173 129.173 0 0 1 30.408 2.475 Q 31.291 2.814 32.056 3.125 A 9.894 9.894 0 0 0 33.003 3.459 Q 33.488 3.601 33.923 3.663 A 4.587 4.587 0 0 0 34.571 3.711 A 2.564 2.564 0 0 0 35.686 3.472 A 2.548 2.548 0 0 0 36.45 2.905 Q 37.207 2.1 37.744 0 Z" id="0"/><path d="M 80.127 67.774 L 51.758 67.774 L 51.758 65.918 L 54.151 65.918 A 12.484 12.484 0 0 0 55.656 65.832 Q 56.411 65.74 57.055 65.55 A 6.614 6.614 0 0 0 57.617 65.357 A 5.575 5.575 0 0 0 60.01 63.525 Q 61.018 62.349 61.159 57.632 A 54.605 54.605 0 0 0 61.182 56.006 L 61.182 13.233 A 200.937 200.937 0 0 0 61.178 12.023 Q 61.173 11.075 61.157 10.327 A 30.277 30.277 0 0 0 61.129 9.478 Q 61.096 8.811 61.035 8.276 A 8.233 8.233 0 0 0 60.945 7.673 Q 60.886 7.364 60.807 7.1 A 4.18 4.18 0 0 0 60.718 6.836 Q 60.498 6.25 60.108 5.811 A 6.263 6.263 0 0 0 58.651 4.592 A 8.316 8.316 0 0 0 57.495 4.004 Q 55.86 3.32 54.151 3.32 L 51.758 3.32 L 51.758 1.563 L 80.127 1.563 L 80.127 3.32 L 77.735 3.32 A 11.538 11.538 0 0 0 76.005 3.444 A 8.426 8.426 0 0 0 74.292 3.882 A 5.202 5.202 0 0 0 71.875 5.713 A 4.018 4.018 0 0 0 71.341 6.806 Q 70.721 8.64 70.661 12.397 A 51.936 51.936 0 0 0 70.654 13.233 L 70.654 56.006 A 59.448 59.448 0 0 0 70.673 57.526 Q 70.715 59.166 70.854 60.323 A 14.64 14.64 0 0 0 70.947 60.986 Q 71.24 62.744 71.778 63.623 A 1.734 1.734 0 0 0 71.992 63.895 Q 72.224 64.14 72.604 64.394 A 5.788 5.788 0 0 0 72.656 64.429 Q 73.291 64.844 74.121 65.161 Q 74.951 65.479 75.904 65.698 Q 76.856 65.918 77.735 65.918 L 80.127 65.918 L 80.127 67.774 Z" id="1"/><path d="M 153.369 33.399 L 152.246 33.399 A 10.38 10.38 0 0 0 150.962 33.473 Q 150.319 33.553 149.785 33.721 A 4.588 4.588 0 0 0 148.975 34.058 A 4.924 4.924 0 0 0 147.068 35.908 A 5.849 5.849 0 0 0 147.022 35.986 A 4.903 4.903 0 0 0 146.573 37.094 Q 145.996 39.099 145.996 43.164 L 145.996 63.379 A 43.683 43.683 0 0 1 137.963 67.038 A 38.463 38.463 0 0 1 134.717 67.969 A 50.758 50.758 0 0 1 124.271 69.315 A 57.051 57.051 0 0 1 122.705 69.336 A 48.984 48.984 0 0 1 114.527 68.683 A 37.618 37.618 0 0 1 107.276 66.724 A 36.295 36.295 0 0 1 99.593 62.705 A 31.357 31.357 0 0 1 95.752 59.57 A 30.486 30.486 0 0 1 88.526 48.877 Q 86.035 42.725 86.035 35.645 A 35.34 35.34 0 0 1 86.802 28.422 A 39.644 39.644 0 0 1 87.036 27.368 A 36.898 36.898 0 0 1 90.039 19.19 A 38.241 38.241 0 0 1 94.995 11.743 A 32.853 32.853 0 0 1 101.856 5.64 A 33.245 33.245 0 0 1 109.328 1.935 A 37.888 37.888 0 0 1 110.596 1.514 A 33.197 33.197 0 0 1 117.658 0.148 A 40.209 40.209 0 0 1 121.143 0 A 44.164 44.164 0 0 1 124.559 0.125 Q 126.644 0.287 128.394 0.659 Q 131.494 1.318 133.74 2.124 Q 135.932 2.91 137.38 3.557 A 28.083 28.083 0 0 1 137.451 3.589 A 10.907 10.907 0 0 0 138.274 3.922 Q 139.095 4.214 139.703 4.245 A 2.786 2.786 0 0 0 139.844 4.248 A 1.17 1.17 0 0 0 140.349 4.124 Q 140.762 3.927 141.211 3.418 Q 141.769 2.786 142.072 1.134 A 16.779 16.779 0 0 0 142.237 0 L 144.092 0 L 145.703 20.899 L 144.092 20.899 Q 142.481 16.162 140.283 12.866 A 23.708 23.708 0 0 0 137.487 9.394 A 19.62 19.62 0 0 0 135.303 7.471 A 18.054 18.054 0 0 0 129.199 4.37 A 24.95 24.95 0 0 0 123.514 3.452 A 28.755 28.755 0 0 0 122.119 3.418 A 27.134 27.134 0 0 0 116.424 3.991 A 21.28 21.28 0 0 0 111.426 5.713 A 22.2 22.2 0 0 0 103.638 12.061 A 27.227 27.227 0 0 0 99.779 18.95 A 32.815 32.815 0 0 0 98.877 21.607 Q 97.266 27.1 97.266 33.496 A 45.282 45.282 0 0 0 97.936 41.44 A 37.194 37.194 0 0 0 99.219 46.558 A 35.764 35.764 0 0 0 102.033 52.996 A 29.71 29.71 0 0 0 104.59 56.812 A 24.495 24.495 0 0 0 112.671 63.525 Q 117.334 65.918 122.803 65.918 Q 126.319 65.918 129.761 65.112 A 21.523 21.523 0 0 0 135.242 62.981 A 25.091 25.091 0 0 0 136.475 62.256 L 136.475 43.164 Q 136.475 40.039 136.133 38.159 A 7.968 7.968 0 0 0 135.826 36.968 Q 135.6 36.317 135.271 35.81 A 4.077 4.077 0 0 0 134.839 35.254 A 4.331 4.331 0 0 0 133.418 34.254 A 6.157 6.157 0 0 0 132.202 33.862 A 16.307 16.307 0 0 0 130.926 33.642 Q 130.26 33.552 129.487 33.492 A 39.292 39.292 0 0 0 127.832 33.399 L 127.832 31.69 L 153.369 31.69 L 153.369 33.399 Z" id="2"/><path d="M 225.635 3.32 L 223.34 3.32 Q 219.043 3.32 217.383 5.811 A 4.646 4.646 0 0 0 216.934 6.903 Q 216.358 8.899 216.358 13.037 L 216.358 68.848 L 214.6 68.848 L 170.801 15.527 L 170.801 56.201 Q 170.801 62.354 172.168 63.916 A 5.676 5.676 0 0 0 174.458 65.386 Q 175.384 65.718 176.528 65.843 A 13.397 13.397 0 0 0 177.979 65.918 L 180.274 65.918 L 180.274 67.774 L 157.129 67.774 L 157.129 65.918 L 159.424 65.918 A 13.06 13.06 0 0 0 160.936 65.836 Q 161.695 65.747 162.335 65.563 A 6.368 6.368 0 0 0 163.062 65.308 Q 164.502 64.697 165.43 63.379 Q 165.915 62.629 166.221 61.162 A 14.973 14.973 0 0 0 166.284 60.84 A 15.16 15.16 0 0 0 166.452 59.653 Q 166.592 58.311 166.601 56.466 A 52.551 52.551 0 0 0 166.602 56.201 L 166.602 10.205 Q 166.358 9.815 165.894 9.155 A 20.554 20.554 0 0 0 165.266 8.312 A 25.003 25.003 0 0 0 164.844 7.788 A 24.61 24.61 0 0 0 163.599 6.397 A 8.622 8.622 0 0 0 162.481 5.416 A 7.752 7.752 0 0 0 162.207 5.225 A 10.367 10.367 0 0 0 160.565 4.322 A 13.138 13.138 0 0 0 159.351 3.858 Q 157.715 3.32 155.42 3.32 L 155.42 1.563 L 171.582 1.563 L 212.012 51.221 L 212.012 13.037 Q 212.012 10.008 211.701 8.158 A 13.428 13.428 0 0 0 211.67 7.983 A 10.583 10.583 0 0 0 211.478 7.118 Q 211.241 6.241 210.899 5.732 A 2.088 2.088 0 0 0 210.645 5.42 A 6.4 6.4 0 0 0 208.298 3.866 A 7.288 7.288 0 0 0 208.277 3.858 A 7.42 7.42 0 0 0 206.89 3.481 Q 206.209 3.361 205.427 3.331 A 14.004 14.004 0 0 0 204.883 3.32 L 202.686 3.32 L 202.686 1.563 L 225.635 1.563 L 225.635 3.32 Z" id="3"/><path d="M 298.194 67.774 L 272.119 67.774 L 272.119 65.918 Q 274.024 65.869 275.318 65.552 A 8.744 8.744 0 0 0 276.215 65.283 Q 276.646 65.127 276.998 64.937 A 4.271 4.271 0 0 0 277.393 64.697 A 3.403 3.403 0 0 0 278.023 64.146 A 2.694 2.694 0 0 0 278.491 63.403 A 4.092 4.092 0 0 0 278.784 62.229 A 5.033 5.033 0 0 0 278.809 61.719 Q 278.809 60.303 278.198 58.569 A 66.527 66.527 0 0 0 276.856 55.078 L 272.901 45.557 L 247.217 45.557 L 242.725 56.104 A 52.915 52.915 0 0 0 242.135 57.534 Q 241.876 58.191 241.664 58.789 A 30.612 30.612 0 0 0 241.529 59.18 Q 241.065 60.547 241.065 61.67 A 3.749 3.749 0 0 0 241.162 62.543 A 3.026 3.026 0 0 0 241.455 63.306 Q 241.846 64.014 242.749 64.526 Q 243.438 64.917 244.452 65.209 A 13.617 13.617 0 0 0 245.117 65.381 A 18.699 18.699 0 0 0 246.319 65.617 Q 247.406 65.796 248.779 65.918 L 248.779 67.774 L 227.832 67.774 L 227.832 65.918 Q 229.297 65.82 230.64 65.332 A 6.711 6.711 0 0 0 231.983 64.655 Q 232.56 64.282 233.137 63.77 A 11.733 11.733 0 0 0 233.325 63.599 A 12.809 12.809 0 0 0 234.42 62.438 Q 234.922 61.84 235.428 61.117 A 25.198 25.198 0 0 0 236.035 60.205 Q 237.029 58.644 238.074 56.387 A 58.211 58.211 0 0 0 238.867 54.59 L 262.11 0 L 263.867 0 L 286.865 55.078 A 87.087 87.087 0 0 0 287.752 57.109 Q 288.224 58.151 288.662 59.029 A 34.993 34.993 0 0 0 289.502 60.62 A 17.663 17.663 0 0 0 290.387 62.036 Q 290.856 62.709 291.336 63.236 A 8.424 8.424 0 0 0 291.919 63.818 A 7.081 7.081 0 0 0 293.658 64.988 A 6.376 6.376 0 0 0 294.654 65.357 A 14.213 14.213 0 0 0 296.064 65.668 Q 296.796 65.794 297.628 65.872 A 25.967 25.967 0 0 0 298.194 65.918 L 298.194 67.774 Z M 271.533 41.992 L 260.303 15.137 L 248.779 41.992 L 271.533 41.992 Z" id="4"/><path d="M 357.569 17.09 L 355.469 17.09 A 37.018 37.018 0 0 0 355.309 15.807 Q 355.164 14.798 354.981 13.989 A 17.615 17.615 0 0 0 354.706 12.923 Q 354.517 12.279 354.297 11.743 A 10.116 10.116 0 0 0 353.941 10.966 Q 353.741 10.575 353.524 10.25 A 5.873 5.873 0 0 0 353.443 10.132 Q 352.979 9.473 352.393 8.887 A 9.829 9.829 0 0 0 348.755 6.421 A 10.336 10.336 0 0 0 347.024 5.93 Q 346.13 5.753 345.082 5.676 A 23.405 23.405 0 0 0 343.36 5.615 L 333.985 5.615 L 333.985 56.201 A 44.136 44.136 0 0 0 334.02 58.035 Q 334.096 59.861 334.335 61.146 A 12.982 12.982 0 0 0 334.351 61.231 A 12.639 12.639 0 0 0 334.564 62.163 Q 334.81 63.066 335.141 63.614 A 2.656 2.656 0 0 0 335.352 63.916 A 5.105 5.105 0 0 0 337.447 65.353 Q 338.915 65.918 341.016 65.918 L 343.36 65.918 L 343.36 67.774 L 315.235 67.774 L 315.235 65.918 L 317.627 65.918 A 14.186 14.186 0 0 0 319.043 65.852 Q 319.751 65.78 320.351 65.633 A 6.423 6.423 0 0 0 321.216 65.357 A 4.972 4.972 0 0 0 323.036 64.071 A 6.457 6.457 0 0 0 323.584 63.379 A 2.741 2.741 0 0 0 323.884 62.837 Q 324.126 62.273 324.283 61.408 A 12.823 12.823 0 0 0 324.365 60.889 Q 324.61 59.131 324.61 56.201 L 324.61 5.615 L 316.699 5.615 A 68.238 68.238 0 0 0 315.287 5.629 Q 314.185 5.652 313.33 5.713 A 16.427 16.427 0 0 0 312.199 5.831 Q 311.643 5.91 311.158 6.024 A 9.311 9.311 0 0 0 310.938 6.079 Q 309.912 6.348 309.18 6.738 A 8.989 8.989 0 0 0 308.196 7.351 A 10.827 10.827 0 0 0 307.715 7.715 A 9.892 9.892 0 0 0 305.626 10.141 A 12.405 12.405 0 0 0 304.932 11.426 A 13.258 13.258 0 0 0 304.119 13.726 Q 303.725 15.247 303.565 17.09 L 301.367 17.09 L 302.1 1.563 L 357.031 1.563 L 357.569 17.09 Z" id="5"/><path d="M 431.104 3.32 L 428.565 3.32 Q 426.844 3.32 425.639 3.922 A 4.554 4.554 0 0 0 425.196 4.175 A 8.427 8.427 0 0 0 424.011 5.115 Q 423.302 5.782 422.608 6.69 A 3.095 3.095 0 0 0 422.183 7.558 Q 421.685 9.045 421.6 12.207 A 51.051 51.051 0 0 0 421.582 13.574 L 421.582 40.527 A 86.164 86.164 0 0 1 421.446 45.463 A 74.756 74.756 0 0 1 421.338 47.046 A 38.759 38.759 0 0 1 420.808 51.114 A 32.949 32.949 0 0 1 420.435 52.857 Q 419.776 55.567 418.653 57.861 A 16.627 16.627 0 0 1 415.772 62.012 A 25.854 25.854 0 0 1 413.099 64.472 A 22.459 22.459 0 0 1 412.012 65.283 A 19.997 19.997 0 0 1 407.715 67.554 A 22.909 22.909 0 0 1 404.659 68.482 A 28.715 28.715 0 0 1 402.49 68.897 A 36.583 36.583 0 0 1 399.516 69.219 Q 397.836 69.336 395.947 69.336 Q 391.816 69.336 388.535 68.745 A 30.202 30.202 0 0 1 388.428 68.726 A 31.924 31.924 0 0 1 385.297 67.993 A 23.931 23.931 0 0 1 382.544 67.017 Q 379.981 65.918 378.052 64.453 A 20.785 20.785 0 0 1 375.447 62.119 A 18.348 18.348 0 0 1 374.707 61.279 A 14.296 14.296 0 0 1 372.367 57.442 A 15.965 15.965 0 0 1 372.339 57.373 A 24.079 24.079 0 0 1 371.395 54.583 A 30.253 30.253 0 0 1 370.899 52.466 A 38.973 38.973 0 0 1 370.447 49.609 A 50.935 50.935 0 0 1 370.166 46.46 A 107.545 107.545 0 0 1 370.02 42.999 A 140.956 140.956 0 0 1 369.971 39.209 L 369.971 13.233 A 37.543 37.543 0 0 0 369.922 11.25 Q 369.872 10.312 369.772 9.511 A 15.656 15.656 0 0 0 369.556 8.203 A 10.839 10.839 0 0 0 369.239 7.021 Q 369.045 6.442 368.8 5.976 A 4.601 4.601 0 0 0 368.311 5.225 A 4.541 4.541 0 0 0 366.495 3.923 Q 365.039 3.32 362.842 3.32 L 361.328 3.32 L 361.328 1.563 L 388.037 1.563 L 388.037 3.32 L 385.547 3.32 A 10.574 10.574 0 0 0 384.442 3.374 Q 383.233 3.502 382.495 3.931 Q 381.562 4.473 380.803 5.614 A 8.338 8.338 0 0 0 380.615 5.908 A 5.178 5.178 0 0 0 380.244 6.675 Q 379.92 7.498 379.712 8.667 A 17.336 17.336 0 0 0 379.531 10.011 Q 379.395 11.406 379.395 13.233 L 379.395 42.139 A 93.841 93.841 0 0 0 379.419 44.232 A 120.851 120.851 0 0 0 379.492 46.509 Q 379.59 48.877 379.981 51.245 Q 380.371 53.613 381.226 55.908 Q 382.08 58.203 383.643 60.059 A 12.615 12.615 0 0 0 387.011 62.936 A 15.726 15.726 0 0 0 388.672 63.794 A 14.533 14.533 0 0 0 391.613 64.721 Q 393.003 65.011 394.615 65.12 A 29.913 29.913 0 0 0 396.631 65.186 A 25.568 25.568 0 0 0 399.835 64.993 A 20.7 20.7 0 0 0 402.124 64.575 Q 404.639 63.965 406.641 63.037 A 27.662 27.662 0 0 0 408.515 62.085 A 20.506 20.506 0 0 0 410.132 61.084 Q 411.204 60.346 411.96 59.709 A 12.821 12.821 0 0 0 412.5 59.229 A 10.42 10.42 0 0 0 414.653 56.334 A 12.326 12.326 0 0 0 414.99 55.615 Q 415.918 53.467 416.382 51.099 A 36.267 36.267 0 0 0 416.992 46.436 A 83.667 83.667 0 0 0 417.082 44.797 Q 417.117 43.986 417.131 43.265 A 44.868 44.868 0 0 0 417.139 42.432 L 417.139 13.233 A 49.072 49.072 0 0 0 417.101 11.25 Q 417.066 10.368 416.996 9.606 A 20.438 20.438 0 0 0 416.821 8.203 A 10.563 10.563 0 0 0 416.61 7.193 Q 416.344 6.191 415.923 5.61 A 2.531 2.531 0 0 0 415.772 5.42 A 6.281 6.281 0 0 0 412.762 3.647 Q 411.758 3.371 410.558 3.328 A 12.558 12.558 0 0 0 410.108 3.32 L 407.617 3.32 L 407.617 1.563 L 431.104 1.563 L 431.104 3.32 Z" id="6"/><path d="M 499.805 67.774 L 482.08 67.774 L 459.668 36.817 A 80.913 80.913 0 0 0 458.727 36.857 Q 458.356 36.875 458.017 36.895 A 44.984 44.984 0 0 0 457.373 36.939 A 28.18 28.18 0 0 1 456.473 36.992 Q 456.047 37.011 455.666 37.012 A 16.884 16.884 0 0 1 455.615 37.012 A 41.803 41.803 0 0 1 454.175 36.987 A 9.733 9.733 0 0 1 453.436 36.932 A 12.637 12.637 0 0 1 452.637 36.817 L 452.637 56.006 A 46.321 46.321 0 0 0 452.673 57.889 Q 452.746 59.688 452.97 60.934 A 12.446 12.446 0 0 0 453.003 61.108 Q 453.309 62.678 453.836 63.448 A 2.321 2.321 0 0 0 454.053 63.721 A 6.317 6.317 0 0 0 457.401 65.67 A 9.748 9.748 0 0 0 459.668 65.918 L 462.256 65.918 L 462.256 67.774 L 433.887 67.774 L 433.887 65.918 L 436.377 65.918 A 10.673 10.673 0 0 0 438.566 65.709 Q 439.836 65.443 440.778 64.836 A 5.178 5.178 0 0 0 442.334 63.281 A 3.922 3.922 0 0 0 442.738 62.321 Q 443.311 60.38 443.311 56.006 L 443.311 13.233 Q 443.311 11.166 443.178 9.606 A 22.065 22.065 0 0 0 443.018 8.203 Q 442.762 6.496 442.207 5.646 A 2.547 2.547 0 0 0 442.041 5.42 A 5.486 5.486 0 0 0 439.649 3.809 Q 438.233 3.32 436.377 3.32 L 433.887 3.32 L 433.887 1.563 L 457.91 1.563 A 133.001 133.001 0 0 1 461.706 1.614 Q 463.582 1.668 465.244 1.777 A 71.034 71.034 0 0 1 467.163 1.929 Q 471.094 2.295 473.633 3.125 Q 476.172 3.955 478.345 5.396 Q 480.518 6.836 482.129 8.789 A 15.062 15.062 0 0 1 484.644 13.184 A 14.748 14.748 0 0 1 485.523 17.538 A 17.182 17.182 0 0 1 485.547 18.457 A 17.216 17.216 0 0 1 484.877 23.301 A 15.959 15.959 0 0 1 484.571 24.243 A 14.373 14.373 0 0 1 481.568 29.15 A 17.633 17.633 0 0 1 478.55 31.735 A 22.233 22.233 0 0 1 476.489 32.983 Q 473.485 34.594 469.417 35.518 A 38.676 38.676 0 0 1 469.287 35.547 L 482.813 54.59 A 69.278 69.278 0 0 0 484.449 56.812 Q 485.277 57.888 486.052 58.792 A 34.726 34.726 0 0 0 486.963 59.815 A 23.913 23.913 0 0 0 488.88 61.67 A 18.122 18.122 0 0 0 490.821 63.135 Q 492.774 64.404 494.922 65.015 A 25.143 25.143 0 0 0 497.217 65.546 Q 498.428 65.77 499.784 65.916 A 40.071 40.071 0 0 0 499.805 65.918 L 499.805 67.774 Z M 452.637 6.055 L 452.637 33.692 L 455.42 33.692 Q 459.685 33.692 462.963 32.872 A 21.025 21.025 0 0 0 463.892 32.617 A 20.342 20.342 0 0 0 466.941 31.445 A 14.834 14.834 0 0 0 469.849 29.614 A 12.451 12.451 0 0 0 472.907 26.013 A 11.914 11.914 0 0 0 473.389 25.049 A 13.778 13.778 0 0 0 474.54 20.109 A 16.171 16.171 0 0 0 474.561 19.287 A 16.901 16.901 0 0 0 474.226 15.862 A 13.996 13.996 0 0 0 473.56 13.599 A 12.529 12.529 0 0 0 471.044 9.554 A 12.066 12.066 0 0 0 470.703 9.204 A 13.033 13.033 0 0 0 467.018 6.672 A 15.327 15.327 0 0 0 466.211 6.323 Q 463.574 5.274 460.303 5.225 A 18.951 18.951 0 0 0 459.352 5.251 Q 458.861 5.275 458.299 5.324 A 43.887 43.887 0 0 0 457.105 5.444 A 91.722 91.722 0 0 0 455.3 5.669 Q 454.374 5.794 453.339 5.948 A 164.615 164.615 0 0 0 452.637 6.055 Z" id="7"/><path d="M 557.813 51.123 L 552.051 67.774 L 501.026 67.774 L 501.026 65.918 L 503.321 65.918 Q 503.62 65.918 504.09 65.875 A 19.402 19.402 0 0 0 504.395 65.845 A 11.861 11.861 0 0 0 505.278 65.715 A 14.222 14.222 0 0 0 505.835 65.601 Q 506.592 65.43 507.324 65.137 A 4.689 4.689 0 0 0 507.991 64.81 A 3.546 3.546 0 0 0 508.545 64.404 Q 509.033 63.965 509.4 63.428 A 3.293 3.293 0 0 0 509.657 62.97 Q 509.77 62.73 509.867 62.441 A 7.279 7.279 0 0 0 510.01 61.963 A 9.747 9.747 0 0 0 510.176 61.2 Q 510.246 60.809 510.3 60.358 A 21.457 21.457 0 0 0 510.376 59.619 Q 510.458 58.668 510.485 57.364 A 65.999 65.999 0 0 0 510.498 56.006 L 510.498 13.037 Q 510.498 9.962 510.187 8.065 A 14.234 14.234 0 0 0 510.156 7.886 A 12.981 12.981 0 0 0 509.977 7.028 Q 509.775 6.215 509.511 5.729 A 2.019 2.019 0 0 0 509.229 5.322 A 5.18 5.18 0 0 0 507.189 3.936 Q 506.332 3.6 505.256 3.447 A 13.82 13.82 0 0 0 503.321 3.32 L 501.026 3.32 L 501.026 1.563 L 552.051 1.563 L 552.832 15.967 L 550.879 15.967 A 32.322 32.322 0 0 0 550.461 13.767 Q 550.217 12.697 549.917 11.783 A 16.049 16.049 0 0 0 549.536 10.742 A 9.836 9.836 0 0 0 548.601 8.962 A 7.586 7.586 0 0 0 547.217 7.398 A 7.85 7.85 0 0 0 545.009 6.091 A 10.245 10.245 0 0 0 543.555 5.64 A 17.264 17.264 0 0 0 541.763 5.327 Q 540.149 5.127 538.135 5.127 L 519.776 5.127 L 519.776 31.299 L 534.375 31.299 A 34.351 34.351 0 0 0 536.34 31.246 Q 538.347 31.131 539.673 30.762 A 7.754 7.754 0 0 0 540.993 30.27 Q 541.761 29.895 542.319 29.372 A 4.508 4.508 0 0 0 542.627 29.053 A 6.085 6.085 0 0 0 543.67 27.34 A 8.11 8.11 0 0 0 544.068 26.074 Q 544.483 24.268 544.824 21.777 L 546.68 21.777 L 546.68 44.775 L 544.824 44.775 A 60.371 60.371 0 0 0 544.554 42.938 Q 544.407 42.034 544.244 41.242 A 31.221 31.221 0 0 0 544.043 40.332 A 8.478 8.478 0 0 0 543.525 38.786 A 6.272 6.272 0 0 0 542.578 37.28 Q 541.611 36.152 539.84 35.588 A 9.095 9.095 0 0 0 539.624 35.523 Q 537.696 34.961 534.375 34.961 L 519.776 34.961 L 519.776 59.766 Q 519.776 60.742 519.995 61.572 A 2.901 2.901 0 0 0 520.85 62.988 A 3.407 3.407 0 0 0 521.547 63.479 Q 522 63.723 522.583 63.892 Q 523.381 64.122 524.502 64.185 A 15.848 15.848 0 0 0 525.391 64.209 L 536.572 64.209 Q 538.88 64.209 540.719 64.047 A 31.626 31.626 0 0 0 541.309 63.989 A 20.602 20.602 0 0 0 543.256 63.69 A 15.69 15.69 0 0 0 544.995 63.233 A 10.55 10.55 0 0 0 547.428 62.086 A 9.681 9.681 0 0 0 547.925 61.743 A 14.015 14.015 0 0 0 549.365 60.518 A 18.126 18.126 0 0 0 550.464 59.351 A 23.63 23.63 0 0 0 551.676 57.818 Q 552.243 57.04 552.815 56.143 A 38.582 38.582 0 0 0 552.979 55.884 A 109.406 109.406 0 0 0 554.146 53.975 Q 554.735 52.99 555.377 51.878 A 194.446 194.446 0 0 0 555.811 51.123 L 557.813 51.123 Z" id="8"/></g></svg>